<?xml version="1.0" standalone="no"?>
<!DOCTYPE svg PUBLIC "-//W3C//DTD SVG 20010904//EN"
 "http://www.w3.org/TR/2001/REC-SVG-20010904/DTD/svg10.dtd">
<svg version="1.0" xmlns="http://www.w3.org/2000/svg"
 width="800.000000pt" height="800.000000pt" viewBox="0 0 800.000000 800.000000"
 preserveAspectRatio="xMidYMid meet">
<metadata>
Created by potrace 1.11, written by Peter Selinger 2001-2013
</metadata>
<g transform="translate(0.000000,800.000000) scale(0.100000,-0.100000)"
fill="#000000" stroke="none">
<path d="M3469 7723 c-1 -5 -3 -57 -4 -118 -1 -60 -3 -117 -4 -126 -1 -14 -18
-16 -126 -16 -69 0 -128 -3 -132 -6 -3 -4 -6 -64 -7 -134 l-1 -128 -130 0
-130 0 -2 -100 c-1 -55 -2 -114 -3 -132 l0 -32 -132 -3 -133 -3 -1 -125 c-1
-69 -2 -128 -3 -131 0 -4 -55 -6 -122 -5 -66 0 -126 -2 -131 -5 -7 -4 -11 -58
-12 -135 l-1 -129 -130 0 -130 0 -2 -590 c-1 -324 -2 -624 -2 -666 l-1 -75
-130 1 -130 1 -1 -25 c-4 -75 -4 -488 -1 -498 3 -10 39 -13 133 -13 127 0 129
0 130 -22 1 -13 2 -72 3 -133 l1 -110 130 0 130 -1 1 -266 2 -266 -114 0 c-63
-1 -123 -1 -134 -1 -18 -1 -20 -8 -19 -83 1 -46 1 -106 0 -133 l-1 -50 -530 0
-530 0 -1 -25 c-3 -64 -4 -756 -2 -765 2 -6 53 -10 133 -10 l130 1 1 -31 c1
-16 1 -76 0 -132 l-1 -103 28 -1 c15 0 195 -1 400 -1 l372 -1 1 -26 c0 -14 0
-74 0 -133 l0 -106 107 0 c59 0 119 -1 133 -1 l26 -1 0 -130 c1 -90 -3 -130
-11 -131 -6 -1 -65 -2 -131 -3 l-120 -1 -2 -75 c-1 -41 -2 -102 -2 -135 l-1
-60 -67 1 c-38 1 -72 3 -78 4 -5 1 -14 1 -20 0 -5 -1 -30 -3 -55 -3 l-45 -2 0
-532 0 -531 133 1 c126 2 132 1 133 -18 0 -11 1 -72 2 -134 l2 -115 258 0
c162 -1 261 3 265 9 4 6 8 60 8 120 1 61 2 117 3 125 1 13 21 15 131 14 l130
-1 1 51 c0 28 1 88 1 134 0 79 4 88 32 83 8 -2 81 -2 151 -1 20 1 251 1 270 1
6 0 61 -2 123 -3 61 -2 112 -1 112 2 0 3 25 3 55 2 54 -4 55 -4 56 25 0 15 1
75 2 133 l2 105 532 0 531 0 -1 -128 -2 -128 30 -8 c16 -4 35 -4 41 0 6 5 13
7 15 4 3 -2 25 -4 49 -5 63 0 92 -1 115 -3 19 -2 20 -10 21 -122 1 -66 2 -125
3 -131 1 -12 768 -14 786 -2 6 3 10 58 9 132 l0 126 70 -1 c39 0 99 0 133 0
l62 1 3 133 3 132 115 1 c63 1 122 2 131 3 13 1 15 59 15 531 l0 530 -25 1
c-14 0 -134 0 -267 1 l-240 0 0 131 0 132 -249 2 c-138 1 -258 2 -268 2 -16 1
-17 12 -15 134 l3 132 260 1 c143 1 262 2 265 3 3 0 5 59 4 131 l-1 130 31 1
c17 0 77 0 134 0 l102 -1 0 268 0 268 -132 -1 -133 0 0 133 0 132 -45 0 c-25
1 -205 2 -400 3 l-355 2 0 130 0 130 120 2 c66 0 125 2 132 2 9 1 13 38 15
134 l3 132 263 0 c228 0 262 1 263 15 1 8 2 67 3 130 l1 115 -135 5 -135 5 0
265 0 265 -132 0 -133 0 0 265 0 266 123 -1 c67 0 127 1 133 3 7 2 10 47 10
132 -1 79 3 131 9 133 6 2 65 2 132 2 81 -1 123 2 125 9 2 6 3 126 3 266 l-1
255 -126 0 c-70 0 -130 4 -134 8 -4 4 -8 65 -8 134 l-1 127 -133 0 -132 -1 0
266 0 267 -132 0 -133 0 -1 129 c-1 72 -2 132 -3 135 0 3 -59 4 -131 4 -71 -1
-130 1 -131 5 -1 3 -2 62 -2 131 l-2 125 -265 0 -265 0 -1 -115 c-1 -63 -2
-122 -3 -131 -1 -14 -18 -16 -131 -16 -111 0 -130 3 -131 16 -1 9 -1 69 -1
133 l1 117 -264 1 c-146 0 -266 -3 -266 -7z m-804 -5191 c1 -86 -2 -132 -9
-133 -43 -3 -248 0 -253 4 -9 10 -8 257 1 260 5 2 66 3 135 2 l126 0 0 -133z"/>
</g>
</svg>
